<?xml version="1.0" encoding="utf-8"?>
<!-- Generator: Adobe Illustrator 22.0.1, SVG Export Plug-In . SVG Version: 6.00 Build 0)  -->
<svg version="1.1" id="Layer_1" xmlns="http://www.w3.org/2000/svg" xmlns:xlink="http://www.w3.org/1999/xlink" x="0px" y="0px"
	 viewBox="0 0 54 54" style="enable-background:new 0 0 54 54;" xml:space="preserve">
<style type="text/css">
	.st0{fill:#245B9F;}
	.st1{fill:#FFFFFF;}
</style>
<g>
	<path class="st0" d="M50.9,26.9c0,13.3-10.7,24-24,24c-13.3,0-24-10.7-24-24c0-13.3,10.7-24,24-24C40.2,2.9,50.9,13.7,50.9,26.9z"
		/>
	<g>
		<path class="st1" d="M22.9,41.9h6c0,0,0-8.3,0-15h4.5l0.5-6h-4.8v-2.4c0-1.2,0.8-1.4,1.3-1.4c0.5,0,3.4,0,3.4,0v-5.1l-4.6,0
			c-5.1,0-6.3,3.8-6.3,6.3v2.7h-3v6h3C22.9,33.7,22.9,41.9,22.9,41.9z"/>
	</g>
	<path class="st0" d="M50.9,26.9c0,13.3-10.7,24-24,24c-13.3,0-24-10.7-24-24c0-13.3,10.7-24,24-24C40.2,2.9,50.9,13.7,50.9,26.9z"
		/>
	<g>
		<path class="st1" d="M22.9,41.9h6c0,0,0-8.3,0-15h4.5l0.5-6h-4.8v-2.4c0-1.2,0.8-1.4,1.3-1.4c0.5,0,3.4,0,3.4,0v-5.1l-4.6,0
			c-5.1,0-6.3,3.8-6.3,6.3v2.7h-3v6h3C22.9,33.7,22.9,41.9,22.9,41.9z"/>
	</g>
	<path class="st0" d="M50.9,26.9c0,13.3-10.7,24-24,24c-13.3,0-24-10.7-24-24c0-13.3,10.7-24,24-24C40.2,2.9,50.9,13.7,50.9,26.9z"
		/>
	<g>
		<path class="st1" d="M22.9,41.9h6c0,0,0-8.3,0-15h4.5l0.5-6h-4.8v-2.4c0-1.2,0.8-1.4,1.3-1.4c0.5,0,3.4,0,3.4,0v-5.1l-4.6,0
			c-5.1,0-6.3,3.8-6.3,6.3v2.7h-3v6h3C22.9,33.7,22.9,41.9,22.9,41.9z"/>
	</g>
</g>
</svg>
