<?xml version="1.0" encoding="utf-8"?>
<!-- Generator: Adobe Illustrator 22.0.1, SVG Export Plug-In . SVG Version: 6.00 Build 0)  -->
<svg version="1.1" id="Layer_1" xmlns="http://www.w3.org/2000/svg" xmlns:xlink="http://www.w3.org/1999/xlink" x="0px" y="0px"
	 viewBox="0 0 54 54" style="enable-background:new 0 0 54 54;" xml:space="preserve">
<style type="text/css">
	.st0{fill:#2E80A8;}
	.st1{fill:#FFFFFF;}
</style>
<g>
	<path class="st0" d="M51,27c0,13.3-10.7,24-24,24C13.7,51,3,40.3,3,27C3,13.7,13.7,3,27,3C40.3,3,51,13.7,51,27z"/>
	<g>
		<path class="st1" d="M36.2,12H17.8c-3.2,0-5.8,2.6-5.8,5.8v6.1v12.3c0,3.2,2.6,5.8,5.8,5.8h18.4c3.2,0,5.8-2.6,5.8-5.8V23.9v-6.1
			C42,14.6,39.4,12,36.2,12z M37.9,15.5l0.7,0v0.7v4.4l-5.1,0l0-5.1L37.9,15.5z M22.7,23.9c1-1.3,2.5-2.2,4.3-2.2s3.3,0.9,4.3,2.2
			c0.6,0.9,1,1.9,1,3.1c0,2.9-2.4,5.3-5.3,5.3c-2.9,0-5.3-2.4-5.3-5.3C21.7,25.9,22.1,24.8,22.7,23.9z M39.1,36.2
			c0,1.6-1.3,2.9-2.9,2.9H17.8c-1.6,0-2.9-1.3-2.9-2.9V23.9h4.5c-0.4,1-0.6,2-0.6,3.1c0,4.5,3.7,8.2,8.2,8.2c4.5,0,8.2-3.7,8.2-8.2
			c0-1.1-0.2-2.1-0.6-3.1h4.5V36.2z"/>
	</g>
	<path class="st0" d="M51,27c0,13.3-10.7,24-24,24C13.7,51,3,40.3,3,27C3,13.7,13.7,3,27,3C40.3,3,51,13.7,51,27z"/>
	<g>
		<path class="st1" d="M36.2,12H17.8c-3.2,0-5.8,2.6-5.8,5.8v6.1v12.3c0,3.2,2.6,5.8,5.8,5.8h18.4c3.2,0,5.8-2.6,5.8-5.8V23.9v-6.1
			C42,14.6,39.4,12,36.2,12z M37.9,15.5l0.7,0v0.7v4.4l-5.1,0l0-5.1L37.9,15.5z M22.7,23.9c1-1.3,2.5-2.2,4.3-2.2s3.3,0.9,4.3,2.2
			c0.6,0.9,1,1.9,1,3.1c0,2.9-2.4,5.3-5.3,5.3c-2.9,0-5.3-2.4-5.3-5.3C21.7,25.9,22.1,24.8,22.7,23.9z M39.1,36.2
			c0,1.6-1.3,2.9-2.9,2.9H17.8c-1.6,0-2.9-1.3-2.9-2.9V23.9h4.5c-0.4,1-0.6,2-0.6,3.1c0,4.5,3.7,8.2,8.2,8.2c4.5,0,8.2-3.7,8.2-8.2
			c0-1.1-0.2-2.1-0.6-3.1h4.5V36.2z"/>
	</g>
	<path class="st0" d="M51,27c0,13.3-10.7,24-24,24C13.7,51,3,40.3,3,27C3,13.7,13.7,3,27,3C40.3,3,51,13.7,51,27z"/>
	<g>
		<path class="st1" d="M36.2,12H17.8c-3.2,0-5.8,2.6-5.8,5.8v6.1v12.3c0,3.2,2.6,5.8,5.8,5.8h18.4c3.2,0,5.8-2.6,5.8-5.8V23.9v-6.1
			C42,14.6,39.4,12,36.2,12z M37.9,15.5l0.7,0v0.7v4.4l-5.1,0l0-5.1L37.9,15.5z M22.7,23.9c1-1.3,2.5-2.2,4.3-2.2s3.3,0.9,4.3,2.2
			c0.6,0.9,1,1.9,1,3.1c0,2.9-2.4,5.3-5.3,5.3c-2.9,0-5.3-2.4-5.3-5.3C21.7,25.9,22.1,24.8,22.7,23.9z M39.1,36.2
			c0,1.6-1.3,2.9-2.9,2.9H17.8c-1.6,0-2.9-1.3-2.9-2.9V23.9h4.5c-0.4,1-0.6,2-0.6,3.1c0,4.5,3.7,8.2,8.2,8.2c4.5,0,8.2-3.7,8.2-8.2
			c0-1.1-0.2-2.1-0.6-3.1h4.5V36.2z"/>
	</g>
</g>
</svg>
