<?xml version="1.0" encoding="utf-8"?>
<!-- Generator: Adobe Illustrator 23.0.1, SVG Export Plug-In . SVG Version: 6.00 Build 0)  -->
<svg version="1.1" id="Layer_1" xmlns="http://www.w3.org/2000/svg" xmlns:xlink="http://www.w3.org/1999/xlink" x="0px" y="0px"
	 viewBox="0 0 1302 462" style="enable-background:new 0 0 1302 462;" xml:space="preserve">
<g>
	<path style="fill:#FFFFFF;" d="M325.71,289.9h-29.84V69.21l140.04,167.51V73.05h29.84V289.9H436.8L325.71,153.11V289.9z"/>
	<path style="fill:#FFFFFF;" d="M482.88,72.75h138.26v30.43h-53.47v185.83h-31.32V103.18h-53.47V72.75z"/>
	<path style="fill:#FFFFFF;" d="M608.73,289.01l88.33-216.55l88.33,216.55h-32.2l-6.5-17.13h-98.97l-6.79,17.13H608.73z
		 M658.37,244.1h77.4l-38.7-99.27L658.37,244.1z"/>
	<path style="fill:#FFFFFF;" d="M951.43,170.84c-2.76,8.86-6.85,16.84-12.26,23.93c-5.42,7.09-12.07,13.1-19.94,18.02
		c-0.4,0.4-0.89,0.69-1.48,0.89c-0.59,0.2-1.08,0.49-1.48,0.89l38.11,75.04H921l-33.38-65.29c-2.36,0.4-4.73,0.69-7.09,0.89
		c-2.36,0.2-4.93,0.3-7.68,0.3h-38.7v64.11h-31.61V72.46h70.31c8.86,0,17.18,1.14,24.96,3.4c7.78,2.27,14.92,5.37,21.42,9.31
		c15.95,10.04,26.69,24.13,32.2,42.25c0.19,0.99,0.39,1.87,0.59,2.66c0.19,0.79,0.49,1.68,0.89,2.66v1.48
		c0.39,0.99,0.64,2.07,0.74,3.25c0.1,1.18,0.25,2.36,0.44,3.54v0.3c0.19,1.18,0.29,2.36,0.29,3.54s0,2.46,0,3.84v0.3v0.59
		c0,1.18,0,2.36,0,3.54c0,1.18-0.1,2.36-0.29,3.55v0.59c-0.2,1.18-0.35,2.32-0.44,3.4c-0.1,1.08-0.35,2.22-0.74,3.4v1.18
		C952.12,167.39,951.63,169.26,951.43,170.84z M876.69,197.72c6.5,0,12.45-1.38,17.87-4.15c5.42-2.77,10.09-6.42,14.03-10.96
		c3.94-4.54,7.09-9.73,9.45-15.56c2.36-5.83,3.54-11.9,3.54-18.22c0-6.12-1.18-12.15-3.54-18.08s-5.52-11.11-9.45-15.56
		c-3.94-4.45-8.62-8.05-14.03-10.82c-5.42-2.77-11.37-4.15-17.87-4.15h-42.25v97.49H876.69z"/>
	<path style="fill:#FFFFFF;" d="M991.32,72.75h31.61V289.3h-31.61V72.75z"/>
	<path style="fill:#FFFFFF;" d="M1167.69,71.87c14.97,0,29.05,2.86,42.25,8.57c13.19,5.71,24.67,13.49,34.42,23.34
		c9.75,9.85,17.43,21.42,23.04,34.71c5.61,13.29,8.42,27.53,8.42,42.69c0,14.97-2.81,29.05-8.42,42.25
		c-5.61,13.2-13.29,24.72-23.04,34.57c-9.75,9.85-21.22,17.63-34.42,23.34c-13.2,5.71-27.28,8.57-42.25,8.57
		c-14.97,0-29-2.85-42.1-8.57c-13.1-5.71-24.52-13.49-34.27-23.34c-9.75-9.85-17.43-21.37-23.04-34.57
		c-5.61-13.19-8.42-27.28-8.42-42.25c0-15.16,2.81-29.4,8.42-42.69c5.61-13.29,13.29-24.86,23.04-34.71
		c9.75-9.85,21.17-17.62,34.27-23.34C1138.69,74.72,1152.72,71.87,1167.69,71.87z M1167.69,259.47c10.24,0,19.94-2.06,29.1-6.18
		c9.16-4.12,17.13-9.71,23.93-16.78s12.16-15.35,16.1-24.87c3.94-9.51,5.91-19.67,5.91-30.46s-1.97-20.99-5.91-30.61
		c-3.94-9.62-9.31-18-16.1-25.17c-6.79-7.16-14.77-12.8-23.93-16.92c-9.16-4.12-18.86-6.18-29.1-6.18c-10.24,0-19.9,2.06-28.95,6.18
		c-9.06,4.12-16.99,9.76-23.78,16.92c-6.79,7.16-12.16,15.55-16.1,25.17c-3.94,9.62-5.91,19.82-5.91,30.61s1.97,20.95,5.91,30.46
		c3.94,9.52,9.31,17.81,16.1,24.87s14.72,12.66,23.78,16.78C1147.79,257.41,1157.45,259.47,1167.69,259.47z"/>
</g>
<g>
	<path style="fill:#FFFFFF;" d="M577.73,368.03c0.44,0.32,0.85,0.68,1.23,1.09c0.38,0.41,0.72,0.8,1.04,1.18
		c1.45,1.83,2.59,3.83,3.41,6.01c0.82,2.18,1.23,4.46,1.23,6.86c0,0.57-0.03,1.01-0.09,1.33c-0.19,3.53-1.26,6.72-3.22,9.56
		c-1.77,2.65-4.04,4.75-6.81,6.29c-2.78,1.55-5.87,2.32-9.27,2.32h-6.25c-3.41,0-6.5-0.77-9.27-2.32c-2.78-1.55-5.05-3.64-6.81-6.29
		c-0.51-0.76-1.01-1.64-1.51-2.65l8.8-6.81c0.19,1.2,0.58,2.32,1.18,3.36c0.6,1.04,1.34,1.96,2.22,2.74
		c0.88,0.79,1.89,1.41,3.03,1.85c1.14,0.44,2.33,0.66,3.6,0.66h3.79c2.59,0,4.83-0.84,6.72-2.51c1.89-1.67,3.03-3.74,3.41-6.2
		c0-0.25,0.01-0.5,0.05-0.76c0.03-0.25,0.05-0.5,0.05-0.76c0-1.39-0.25-2.68-0.76-3.88c-0.51-1.2-1.2-2.26-2.08-3.17
		c-0.88-0.91-1.93-1.66-3.12-2.22c-1.2-0.57-2.46-0.88-3.79-0.95h-5.39h-0.38c-2.33-0.06-4.53-0.52-6.58-1.37
		c-2.05-0.85-3.9-2-5.54-3.45c-0.88-0.63-1.64-1.39-2.27-2.27c-1.45-1.83-2.59-3.83-3.41-6.01c-0.82-2.18-1.23-4.46-1.23-6.86v-1.33
		c0.31-3.6,1.42-6.78,3.31-9.56c1.77-2.65,4.04-4.75,6.81-6.29c2.78-1.54,5.87-2.32,9.27-2.32h6.15c3.41,0,6.51,0.77,9.32,2.32
		c2.81,1.55,5.09,3.64,6.86,6.29c0.19,0.32,0.39,0.66,0.62,1.04c0.22,0.38,0.43,0.73,0.62,1.04l-8.61,6.72
		c-0.57-2.27-1.77-4.16-3.6-5.68c-1.83-1.51-3.94-2.27-6.34-2.27h-3.79c-1.26,0-2.48,0.22-3.64,0.66c-1.17,0.44-2.19,1.06-3.08,1.84
		c-0.88,0.79-1.63,1.72-2.22,2.79c-0.6,1.07-0.99,2.21-1.18,3.41c-0.06,0.25-0.09,0.51-0.09,0.76c0,0.25,0,0.51,0,0.76
		c0,1.39,0.25,2.68,0.76,3.88c0.5,1.2,1.2,2.26,2.08,3.17c0.88,0.92,1.92,1.66,3.12,2.22c1.2,0.57,2.46,0.88,3.79,0.95h5.39h0.38
		c2.33,0.06,4.53,0.52,6.58,1.37C574.24,365.43,576.09,366.58,577.73,368.03z"/>
	<path style="fill:#FFFFFF;" d="M633.28,333.2h9.94v46.37c0,3.22-0.62,6.22-1.85,8.99c-1.23,2.78-2.92,5.19-5.06,7.24
		c-2.15,2.05-4.64,3.68-7.48,4.87c-2.84,1.2-5.9,1.8-9.18,1.8c-3.22,0-6.23-0.6-9.04-1.8c-2.81-1.2-5.27-2.82-7.38-4.87
		c-2.11-2.05-3.77-4.46-4.97-7.24c-1.2-2.78-1.8-5.77-1.8-8.99V333.2h9.94v46.37c0,1.83,0.35,3.55,1.04,5.16
		c0.69,1.61,1.64,3.03,2.84,4.26c1.2,1.23,2.62,2.19,4.26,2.89c1.64,0.7,3.37,1.04,5.21,1.04c1.89,0,3.66-0.35,5.3-1.04
		c1.64-0.69,3.08-1.66,4.31-2.89c1.23-1.23,2.19-2.65,2.89-4.26c0.69-1.61,1.04-3.33,1.04-5.16V333.2z"/>
	<path style="fill:#FFFFFF;" d="M713.44,333.2l12.87,69.47H716l-6.72-38.52l-18.64,39.75l-18.55-39.75l-6.72,38.52h-10.32
		l12.87-69.47L690.63,381L713.44,333.2z"/>
	<path style="fill:#FFFFFF;" d="M796.54,333.2l12.87,69.47h-10.32l-6.72-38.52l-18.64,39.75l-18.55-39.75l-6.72,38.52h-10.32
		l12.87-69.47L773.73,381L796.54,333.2z"/>
	<path style="fill:#FFFFFF;" d="M831.27,392.45h30.85v9.94h-40.88V333.3h40.22v9.75h-30.19v10.93v5.66v6.88h27.16v9.46h-27.16
		V392.45z"/>
	<path style="fill:#FFFFFF;" d="M921.65,364.62c-0.88,2.84-2.19,5.39-3.93,7.67c-1.74,2.27-3.87,4.2-6.39,5.77
		c-0.13,0.13-0.28,0.22-0.47,0.28c-0.19,0.06-0.35,0.16-0.47,0.28l12.21,24.04h-10.69l-10.69-20.92c-0.76,0.13-1.51,0.22-2.27,0.28
		c-0.76,0.06-1.58,0.09-2.46,0.09h-12.4v20.54h-10.13v-69.56h22.52c2.84,0,5.5,0.36,8,1.09c2.49,0.73,4.78,1.72,6.86,2.98
		c5.11,3.22,8.55,7.73,10.32,13.53c0.06,0.32,0.13,0.6,0.19,0.85c0.06,0.25,0.16,0.54,0.28,0.85v0.47c0.13,0.32,0.2,0.66,0.24,1.04
		c0.03,0.38,0.08,0.76,0.14,1.14v0.09c0.06,0.38,0.09,0.76,0.09,1.14c0,0.38,0,0.79,0,1.23v0.09v0.19c0,0.38,0,0.76,0,1.14
		c0,0.38-0.03,0.76-0.09,1.14v0.19c-0.06,0.38-0.11,0.74-0.14,1.09c-0.03,0.35-0.11,0.71-0.24,1.09v0.38
		C921.87,363.52,921.72,364.12,921.65,364.62z M897.71,373.24c2.08,0,3.99-0.44,5.73-1.33s3.23-2.06,4.5-3.51
		c1.26-1.46,2.27-3.12,3.03-4.99c0.76-1.87,1.14-3.81,1.14-5.84c0-1.96-0.38-3.89-1.14-5.79c-0.76-1.9-1.77-3.56-3.03-4.98
		c-1.26-1.42-2.76-2.58-4.5-3.46s-3.64-1.33-5.73-1.33h-13.53v31.23H897.71z"/>
</g>
<g>
	<path style="fill:#FF0000;" d="M182.49,36.88c-1.89-0.64-3.81-1.24-5.74-1.79c-11.38-3.27-23.38-5.06-35.81-5.06
		c-12.43,0-24.43,1.79-35.81,5.06c-1.93,0.55-3.84,1.15-5.74,1.79C34.27,58.94,1.48,131.88,24.92,196.52l16.65,45.91l63.67,175.55
		c12.1,33.38,59.31,33.38,71.41,0l63.67-175.55l16.65-45.91C280.41,131.88,247.62,58.94,182.49,36.88z M140.95,240.95
		c-42.72,0-77.34-34.63-77.34-77.34c0-42.72,34.63-77.34,77.34-77.34c42.72,0,77.34,34.63,77.34,77.34
		C218.29,206.32,183.66,240.95,140.95,240.95z"/>
</g>
</svg>
