<?xml version="1.0" encoding="utf-8"?>
<!-- Generator: Adobe Illustrator 22.0.1, SVG Export Plug-In . SVG Version: 6.00 Build 0)  -->
<svg version="1.1" id="Layer_1" xmlns="http://www.w3.org/2000/svg" xmlns:xlink="http://www.w3.org/1999/xlink" x="0px" y="0px"
	 viewBox="0 0 54 54" style="enable-background:new 0 0 54 54;" xml:space="preserve">
<style type="text/css">
	.st0{fill:#EF3F43;}
	.st1{fill:#FFFFFF;}
</style>
<g>
	<path class="st0" d="M51,27c0,13.3-10.7,24-24,24C13.7,51,3,40.3,3,27C3,13.7,13.7,3,27,3C40.3,3,51,13.7,51,27z"/>
	<g>
		<g id="Lozenge_9_">
			<g>
				<path class="st1" d="M41.7,20.7c0,0-0.3-2.2-1.2-3.1c-1.1-1.2-2.4-1.3-3-1.3C33.3,16,27,16,27,16h0c0,0-6.3,0-10.5,0.3
					c-0.6,0.1-1.9,0.1-3,1.3c-0.9,0.9-1.2,3.1-1.2,3.1S12,23.3,12,25.8v2.4c0,2.5,0.3,5.1,0.3,5.1s0.3,2.2,1.2,3.1
					c1.1,1.2,2.6,1.2,3.3,1.3C19.2,37.9,27,38,27,38s6.3,0,10.5-0.3c0.6-0.1,1.9-0.1,3-1.3c0.9-0.9,1.2-3.1,1.2-3.1s0.3-2.5,0.3-5.1
					v-2.4C42,23.3,41.7,20.7,41.7,20.7z M23.9,31.1l0-8.8l8.1,4.4L23.9,31.1z"/>
			</g>
		</g>
	</g>
	<path class="st0" d="M51,27c0,13.3-10.7,24-24,24C13.7,51,3,40.3,3,27C3,13.7,13.7,3,27,3C40.3,3,51,13.7,51,27z"/>
	<g>
		<g id="Lozenge_11_">
			<g>
				<path class="st1" d="M41.7,20.7c0,0-0.3-2.2-1.2-3.1c-1.1-1.2-2.4-1.3-3-1.3C33.3,16,27,16,27,16h0c0,0-6.3,0-10.5,0.3
					c-0.6,0.1-1.9,0.1-3,1.3c-0.9,0.9-1.2,3.1-1.2,3.1S12,23.3,12,25.8v2.4c0,2.5,0.3,5.1,0.3,5.1s0.3,2.2,1.2,3.1
					c1.1,1.2,2.6,1.2,3.3,1.3C19.2,37.9,27,38,27,38s6.3,0,10.5-0.3c0.6-0.1,1.9-0.1,3-1.3c0.9-0.9,1.2-3.1,1.2-3.1s0.3-2.5,0.3-5.1
					v-2.4C42,23.3,41.7,20.7,41.7,20.7z M23.9,31.1l0-8.8l8.1,4.4L23.9,31.1z"/>
			</g>
		</g>
	</g>
	<path class="st0" d="M51,27c0,13.3-10.7,24-24,24C13.7,51,3,40.3,3,27C3,13.7,13.7,3,27,3C40.3,3,51,13.7,51,27z"/>
	<g>
		<g id="Lozenge_2_">
			<g>
				<path class="st1" d="M41.7,20.7c0,0-0.3-2.2-1.2-3.1c-1.1-1.2-2.4-1.3-3-1.3C33.3,16,27,16,27,16h0c0,0-6.3,0-10.5,0.3
					c-0.6,0.1-1.9,0.1-3,1.3c-0.9,0.9-1.2,3.1-1.2,3.1S12,23.3,12,25.8v2.4c0,2.5,0.3,5.1,0.3,5.1s0.3,2.2,1.2,3.1
					c1.1,1.2,2.6,1.2,3.3,1.3C19.2,37.9,27,38,27,38s6.3,0,10.5-0.3c0.6-0.1,1.9-0.1,3-1.3c0.9-0.9,1.2-3.1,1.2-3.1s0.3-2.5,0.3-5.1
					v-2.4C42,23.3,41.7,20.7,41.7,20.7z M23.9,31.1l0-8.8l8.1,4.4L23.9,31.1z"/>
			</g>
		</g>
	</g>
</g>
</svg>
